<svg xmlns:dc="http://purl.org/dc/elements/1.1/" xmlns:cc="http://creativecommons.org/ns#" xmlns:rdf="http://www.w3.org/1999/02/22-rdf-syntax-ns#" xmlns:svg="http://www.w3.org/2000/svg" xmlns="http://www.w3.org/2000/svg" xmlns:sodipodi="http://sodipodi.sourceforge.net/DTD/sodipodi-0.dtd" xmlns:inkscape="http://www.inkscape.org/namespaces/inkscape" id="svg20" width="1038" height="437" fill="none" version="1.1" viewBox="0 0 1038 437" sodipodi:docname="instalaciongrav.svg" inkscape:version="0.92.5 (2060ec1f9f, 2020-04-08)"><defs id="defs20"/><metadata id="metadata26"></metadata><rect style="opacity:0.856;fill:#550044;fill-opacity:1;stroke-width:0.99912471" id="rect829" width="1040.4257" height="439.51373" x="0" y="-0.69002968"/><g transform="matrix(0.85152881,0,0,0.85152881,316.16123,-132.78957)" id="g951"><polygon style="fill:#e6e6e6" id="polygon72" points="448.421,603.085 452.276,552.973 558.285,552.973 562.14,603.085 "/><rect style="fill:#e6e6e6" id="rect74" height="11.5646" width="127.21043" y="597.30341" x="442.63879"/><path style="fill:#3f3d56" inkscape:connector-curvature="0" id="path76" transform="translate(-172.29081,-144.61233)" d="M 895.37073,374.74021 H 460.73514 a 11.56458,11.56458 0 0 0 -11.56458,11.56458 v 0 265.02171 H 906.93533 V 386.30479 a 11.56457,11.56457 0 0 0 -11.56456,-11.56458 z"/><path style="fill:#e6e6e6" inkscape:connector-curvature="0" id="path78" transform="translate(-172.29081,-144.61233)" d="m 449.17056,651.3265 v 43.36719 a 11.56457,11.56457 0 0 0 11.56458,11.56457 h 434.63559 a 11.56459,11.56459 0 0 0 11.5646,-11.56457 v 0 -43.36719 z"/><rect style="fill:#e6e6e6" id="rect80" height="231.29169" width="412.47015" y="254.22076" x="300.00891"/><circle style="fill:#3f3d56" id="circle82" r="11.56459" cy="533.69818" cx="506.24399"/><circle style="fill:#ffffff" id="circle84" r="2.1946599" cy="261.79535" cx="312.86987"/><circle style="fill:#ffffff" id="circle86" r="2.1946599" cy="261.79535" cx="321.20026"/><circle style="fill:#ffffff" id="circle88" r="2.1946599" cy="261.79535" cx="329.53064"/><rect style="fill:#ffffff" id="rect90" height="194.24707" width="389.91608" y="269.25275" x="310.6752"/><path style="fill:#e6e6e6" inkscape:connector-curvature="0" id="path92" transform="translate(-172.29081,-144.61233)" d="m 508.885,443.41111 a 1.37973,1.37973 0 0 0 -1.37842,1.37842 v 69.67578 a 1.37973,1.37973 0 0 0 1.37842,1.37841 h 80.4643 a 1.37973,1.37973 0 0 0 1.37842,-1.37841 v -69.67578 a 1.37973,1.37973 0 0 0 -1.37842,-1.37842 z"/><path style="fill:#e6e6e6" inkscape:connector-curvature="0" id="path94" transform="translate(-172.29081,-144.61233)" d="m 638.08075,443.63523 a 1.37984,1.37984 0 0 0 -1.37891,1.37842 v 69.45166 a 1.37984,1.37984 0 0 0 1.37891,1.37841 h 80.208 a 1.37963,1.37963 0 0 0 1.37793,-1.37841 v -69.45166 a 1.37963,1.37963 0 0 0 -1.37793,-1.37842 z"/><path style="fill:#e6e6e6" inkscape:connector-curvature="0" id="path96" transform="translate(-172.29081,-144.61233)" d="m 765.92157,442.9072 a 1.37963,1.37963 0 0 0 -1.37793,1.37842 v 70.17969 a 1.37962,1.37962 0 0 0 1.37793,1.37841 h 81.042 a 1.37962,1.37962 0 0 0 1.37793,-1.37841 v -70.17969 a 1.37963,1.37963 0 0 0 -1.37793,-1.37842 z"/><path style="fill:#e6e6e6" inkscape:connector-curvature="0" id="path98" transform="translate(-172.29081,-144.61233)" d="m 510.35614,550.333 a 2.84986,2.84986 0 0 0 0,5.69971 h 75.65234 a 2.84986,2.84986 0 0 0 0,-5.69971 z"/><path style="fill:#849dc3" inkscape:connector-curvature="0" id="path100" transform="translate(-172.29081,-144.61233)" d="m 510.35614,563.88865 a 2.8501,2.8501 0 0 0 0,5.70019 h 34.062 a 2.8501,2.8501 0 0 0 0,-5.70019 z"/><path style="fill:#e6e6e6" inkscape:connector-curvature="0" id="path102" transform="translate(-172.29081,-144.61233)" d="m 640.94012,550.333 a 2.84986,2.84986 0 0 0 0,5.69971 h 75.65235 a 2.84986,2.84986 0 0 0 0,-5.69971 z"/><path style="fill:#849dc3" inkscape:connector-curvature="0" id="path104" transform="translate(-172.29081,-144.61233)" d="m 640.94012,563.88865 a 2.8501,2.8501 0 0 0 0,5.70019 h 34.0625 a 2.8501,2.8501 0 0 0 0,-5.70019 z"/><path style="fill:#e6e6e6" inkscape:connector-curvature="0" id="path106" transform="translate(-172.29081,-144.61233)" d="m 768.26044,550.333 a 2.84986,2.84986 0 0 0 0,5.69971 h 75.65234 a 2.84986,2.84986 0 0 0 0,-5.69971 z"/><path style="fill:#e6e6e6" inkscape:connector-curvature="0" id="path108" transform="translate(-172.29081,-144.61233)" d="m 510.35614,536.333 a 2.84986,2.84986 0 0 0 0,5.69971 h 75.65234 a 2.84986,2.84986 0 0 0 0,-5.69971 z"/><path style="fill:#e6e6e6" inkscape:connector-curvature="0" id="path110" transform="translate(-172.29081,-144.61233)" d="m 640.94012,536.333 a 2.84986,2.84986 0 0 0 0,5.69971 h 75.65235 a 2.84986,2.84986 0 0 0 0,-5.69971 z"/><path style="fill:#e6e6e6" inkscape:connector-curvature="0" id="path112" transform="translate(-172.29081,-144.61233)" d="m 768.26044,536.333 a 2.84986,2.84986 0 0 0 0,5.69971 h 75.65234 a 2.84986,2.84986 0 0 0 0,-5.69971 z"/><path style="fill:#849dc3" inkscape:connector-curvature="0" id="path114" transform="translate(-172.29081,-144.61233)" d="m 768.26044,563.88865 a 2.8501,2.8501 0 0 0 0,5.70019 H 802.322 a 2.8501,2.8501 0 0 0 0,-5.70019 z"/></g><g id="g986"><g transform="translate(0,-0.26836038)" id="g853"><path style="clip-rule:evenodd;fill:#f6ffd5;stroke-width:0.86585188;stroke-linejoin:round;stroke-miterlimit:1.41419995" inkscape:connector-curvature="0" d="m 118.75955,232.02979 c -6.06942,-4.29611 -9.53706,-7.92638 -12.55796,-14.43596 -2.06637,4.4601 -6.890118,11.09066 -15.026743,16.308 -4.062451,13.53713 -23.385887,39.44373 -29.640194,35.77045 -1.851363,-1.08613 -2.202727,-2.51637 -1.784435,-3.99322 0.448409,-3.70017 7.594516,-12.20546 7.594516,-12.20546 0,0 0.150585,1.78511 2.436971,5.54443 -3.019234,-10.04128 4.990227,-22.43135 7.11097,-26.64949 3.333789,-1.13721 3.575562,-5.72367 3.575562,-5.72367 0.213329,-7.0876 -2.742324,-12.2189 -5.605954,-15.2873 2.057161,2.69021 2.723084,6.75602 2.820964,10.47949 v 0.0206 c 0.01,0.4203 0.01,0.83342 0.0092,1.24565 -0.09788,3.08183 -0.967928,7.3394 -2.830166,7.3394 l 0.0051,0.0268 c -1.914942,-0.0878 -4.279131,0.35039 -6.39067,1.05745 l -4.669816,1.19545 c 0,0 2.490512,-0.12188 3.834905,1.12196 -1.497487,2.61227 -4.826258,5.85451 -8.538184,7.69609 -5.401828,2.68394 -6.953692,-2.65618 -4.211367,-6.12783 0.67345,-0.84776 1.353593,-1.56377 1.996927,-2.14985 -0.414109,-0.45972 -0.675124,-1.07358 -0.743723,-1.85322 -8.76e-4,-0.004 -0.0033,-0.008 -0.0042,-0.0117 -0.376463,-1.77168 -0.16899,-4.07118 2.171774,-7.72744 0.460958,-0.77338 1.015613,-1.56645 1.679025,-2.3721 0.02091,-0.0278 0.03848,-0.0528 0.06023,-0.0797 0.02845,-0.0376 0.06023,-0.0717 0.09035,-0.10844 0.01673,-0.0206 0.03263,-0.0403 0.04936,-0.0609 0.167317,-0.20433 0.345509,-0.40327 0.534577,-0.59414 2.789174,-3.05944 7.193793,-6.24253 14.135772,-9.09765 8.093957,-12.74584 11.058807,-15.13585 11.058807,-15.13585 0.895986,-0.98217 2.46207,-2.20272 3.038481,-2.51369 -4.227262,-7.86903 -5.081415,-18.96059 -3.973777,-21.94922 -0.08951,0.16131 -0.172336,0.32709 -0.240099,0.49826 0.409926,-1.0243 0.685163,-1.35229 1.110977,-1.89177 1.155329,-1.4625 5.068032,-2.2296 6.472661,0.87016 0.748744,1.6525 0.889285,3.79248 0.86503,5.39746 -3.098713,-0.17295 -5.908798,3.61685 -5.908798,3.61685 0,0 2.565806,-1.29763 5.754864,-1.32003 0,0 0.84913,0.79131 1.909921,2.278 -1.432234,2.87931 -3.78471,8.98024 -2.081419,15.38498 0.282763,1.26177 0.710261,2.347 1.240652,3.26912 0.02005,0.0404 0.03684,0.0797 0.05769,0.12099 0.04265,0.0592 0.08032,0.10933 0.120472,0.16399 2.817614,4.54524 7.982697,5.07666 7.982697,5.07666 -2.431121,-1.29942 -4.412154,-3.3695 -5.702167,-5.8787 -0.66927,-1.34242 -1.080033,-2.47515 -1.331848,-3.3704 -1.368652,-5.65735 0.645007,-8.96053 1.797821,-11.1758 2.651974,-4.40632 7.482424,-7.07325 12.675104,-6.43879 7.28832,0.89168 12.522,7.94162 11.6896,15.74613 -0.50865,4.76838 -3.16313,8.7132 -6.81147,10.85856 0.87757,2.54415 -0.0611,5.62778 -0.0611,5.62778 2.21026,2.97789 2.30731,4.694 2.23117,6.28824 -2.80841,-0.50632 -5.53651,1.52433 -5.53651,1.52433 0,0 5.41772,-1.38543 8.56496,1.62203 2.04628,2.35775 3.41158,4.48877 4.22558,6.0633 1.16536,2.24484 6.57473,2.40435 5.959,6.44148 -0.61657,4.03173 -4.74261,4.07027 -11.21108,-0.50185 M 87.287236,159.47 c -32.144927,0 -58.20203,27.91306 -58.20203,62.34197 0,34.43161 26.057103,62.34735 58.20203,62.34735 32.141594,0 58.199524,-27.91574 58.199524,-62.34735 0,-34.42981 -26.05793,-62.34197 -58.199524,-62.34197" id="path10"/><path style="clip-rule:evenodd;fill:#f6ffd5;stroke-width:0.86585188;stroke-linejoin:round;stroke-miterlimit:1.41419995" inkscape:connector-curvature="0" d="m 90.822646,205.79432 c 0.68014,-0.72947 0.68014,-1.91238 0,-2.64093 -0.68182,-0.72947 -1.784436,-0.72947 -2.465412,0 -0.68182,0.72855 -0.68182,1.91146 0,2.64093 0.680976,0.72856 1.783592,0.72856 2.465412,0" id="path12"/><path style="clip-rule:evenodd;fill:#f6ffd5;stroke-width:0.86585188;stroke-linejoin:round;stroke-miterlimit:1.41419995" inkscape:connector-curvature="0" d="m 84.672912,207.0991 c -0.68098,0.72856 -0.68098,1.91147 0,2.64093 0.680143,0.72946 1.784435,0.72946 2.465418,0 0.680141,-0.72946 0.680141,-1.91237 0,-2.64093 -0.680983,-0.72856 -1.785275,-0.72856 -2.465418,0" id="path14-6"/><path style="clip-rule:evenodd;fill:#f6ffd5;stroke-width:0.86585188;stroke-linejoin:round;stroke-miterlimit:1.41419995" inkscape:connector-curvature="0" d="m 95.369485,208.07053 c -1.065813,-1.1417 -2.793359,-1.1399 -3.857492,0 l -2.269659,2.43032 c -1.065805,1.14258 -1.065805,2.99222 0,4.13301 l 2.491354,2.66872 c 1.065804,1.14258 2.792523,1.14168 3.857491,0 l 2.268816,-2.43034 c 1.065813,-1.14169 1.065813,-2.99222 0,-4.13301 z" id="path16-7"/><path style="clip-rule:evenodd;fill:#f6ffd5;stroke-width:0.86585188;stroke-linejoin:round;stroke-miterlimit:1.41419995" inkscape:connector-curvature="0" d="m 109.19656,196.61064 c -1.7995,-2.31026 1.56357,-6.5033 3.67344,-3.99949 3.88593,4.61335 -1.87145,6.30975 -3.67344,3.99949 m 7.73422,2.40795 c 2.87952,-5.87244 -1.1938,-9.30288 -3.99302,-12.11855 -4.48409,-4.51567 -8.95648,-6.46747 -14.063821,-0.21598 -5.104844,6.25239 -1.862239,13.50309 2.807581,17.08139 4.67149,3.57919 12.36639,1.12465 15.24926,-4.74686" id="path18-5"/></g><g transform="translate(9.914898,-25.550228)" id="g1104"><path style="clip-rule:evenodd;fill:#f6ffd5;stroke-width:0.82211894;stroke-linejoin:round;stroke-miterlimit:1.41419995" inkscape:connector-curvature="0" d="m 208.41284,220.36238 -6.33875,-8.5e-4 c -0.96352,8.5e-4 -1.74514,0.83981 -1.74514,1.87533 v 13.04144 l -0.12551,0.11232 c -3.73017,3.37119 -8.4469,5.2244 -13.2804,5.2244 -11.4034,0 -20.67959,-9.93828 -20.67959,-22.15436 0,-12.21694 9.27619,-22.15266 20.67959,-22.15266 4.43395,0 8.67329,1.5035 12.26207,4.35055 0.69663,0.55222 1.66253,0.47649 2.27655,-0.17954 l 4.51974,-4.8415 c 0.35268,-0.37609 0.53617,-0.89768 0.50758,-1.43033 -0.027,-0.53351 -0.2669,-1.02617 -0.65771,-1.35886 -5.36967,-4.56327 -12.08494,-7.07422 -18.90902,-7.07422 -16.82391,0 -30.5134,14.66322 -30.5134,32.68656 0,18.02419 13.68949,32.68655 30.5134,32.68655 8.68758,0 16.99627,-4.00339 22.79568,-10.98826 0.28437,-0.3429 0.44165,-0.78366 0.44165,-1.24228 v -16.67981 c 0,-1.03552 -0.78242,-1.87448 -1.74753,-1.87448" id="path2"/><path style="clip-rule:evenodd;fill:#f6ffd5;stroke-width:0.82211894;stroke-linejoin:round;stroke-miterlimit:1.41419995" inkscape:connector-curvature="0" d="m 420.46718,188.77856 c -0.32409,-0.52414 -0.87376,-0.84152 -1.45998,-0.84152 h -6.89796 c -0.69822,0 -1.32891,0.44416 -1.60613,1.13082 l -19.44759,48.36317 -19.7947,-48.37423 c -0.2796,-0.67985 -0.90712,-1.11976 -1.59819,-1.11976 h -6.921 c -0.59098,0 -1.14383,0.31738 -1.46395,0.84663 -0.32409,0.5301 -0.3781,1.19804 -0.13821,1.77834 l 23.97764,58.58989 c 0.27961,0.67985 0.90792,1.12061 1.60217,1.12061 h 8.73127 c 0.69822,0 1.32892,-0.44841 1.60534,-1.13082 l 23.55586,-58.59245 c 0.22956,-0.5786 0.17634,-1.24313 -0.14457,-1.77068" id="path4-3"/><path style="clip-rule:evenodd;fill:#f6ffd5;stroke-width:0.82211894;stroke-linejoin:round;stroke-miterlimit:1.41419995" inkscape:connector-curvature="0" d="m 329.82618,189.0568 c -0.28039,-0.679 -0.90712,-1.11976 -1.60216,-1.11976 h -8.7281 c -0.69821,0 -1.32891,0.44416 -1.60534,1.13082 l -23.55585,58.59245 c -0.23354,0.57434 -0.17952,1.24228 0.14456,1.76728 0.3233,0.52669 0.87059,0.84492 1.45998,0.84492 h 6.89796 c 0.69822,0 1.32892,-0.44756 1.60614,-1.13082 l 19.44361,-48.36572 19.7947,48.37593 c 0.2804,0.679 0.90792,1.12061 1.59899,1.12061 h 6.92417 c 0.59099,0 1.14384,-0.31823 1.46395,-0.84492 0.32409,-0.53095 0.37413,-1.19974 0.13822,-1.78175 z" id="path6"/><path style="clip-rule:evenodd;fill:#f6ffd5;stroke-width:0.82211894;stroke-linejoin:round;stroke-miterlimit:1.41419995" inkscape:connector-curvature="0" d="m 266.69284,228.83799 0.3781,-0.19485 c 6.89081,-3.56604 11.34224,-11.13547 11.34224,-19.2869 0,-11.81106 -8.97196,-21.42005 -19.99806,-21.42005 h -25.30973 c -0.96432,0 -1.74674,0.84067 -1.74674,1.87364 v 58.58734 c 0,1.03722 0.78242,1.87534 1.74674,1.87534 h 6.33796 c 0.96431,0 1.74752,-0.83812 1.74752,-1.87534 v -49.92879 h 17.22425 c 5.60718,0 10.16663,4.8832 10.16663,10.88786 0,5.00743 -3.17414,9.35032 -7.72724,10.55772 -0.81975,0.22208 -1.6395,0.3344 -2.43939,0.3344 h -6.33637 c -0.6585,0 -1.25901,0.39736 -1.55609,1.02531 -0.30026,0.62965 -0.24227,1.38268 0.14854,1.95362 l 17.96774,26.27858 c 0.32727,0.4816 0.84994,0.76664 1.40676,0.76664 h 7.87578 c 0.65692,0 1.26061,-0.39736 1.55689,-1.02701 0.30026,-0.63136 0.23989,-1.38609 -0.14774,-1.95362 z" id="path8"/></g><g id="text1042" style="font-style:normal;font-variant:normal;font-weight:normal;font-stretch:normal;font-size:42.10414886px;line-height:1.25;font-family:Kalimati;-inkscape-font-specification:Kalimati;letter-spacing:0px;word-spacing:0px;fill:#000000;fill-opacity:1;stroke:none;stroke-width:2.03976727" transform="scale(0.88389478,1.1313564)" aria-label="en castellano "><path id="path937" style="font-style:normal;font-variant:normal;font-weight:bold;font-stretch:normal;font-family:'Segoe Script';-inkscape-font-specification:'Segoe Script Bold';text-align:center;text-anchor:middle;fill:#ffffff;stroke-width:2.03976727" d="m 203.00891,228.41903 q 0,-0.90458 -0.28783,-1.27463 -0.26726,-0.37006 -0.61676,-0.37006 -0.30838,0 -0.71955,0.37006 -0.41117,0.37005 -0.86346,1.00737 -0.43173,0.61676 -0.88402,1.45967 -0.43174,0.82234 -0.82235,1.74748 -0.37006,0.92514 -0.63732,1.91196 -0.2467,0.96626 -0.3495,1.87084 0.5962,-0.49341 1.06905,-0.88402 0.49341,-0.41118 0.92514,-0.86347 0.43174,-0.43173 0.96626,-1.04849 0.55508,-0.63732 1.04849,-1.31576 0.49341,-0.67843 0.82235,-1.35687 0.3495,-0.67843 0.3495,-1.25408 z m 15.95352,2.22034 q 0,0.16447 -0.12335,0.51397 -0.12335,0.34949 -0.41117,0.82234 -0.80179,1.27464 -2.01475,2.77542 -1.19241,1.50079 -2.65207,3.00157 -1.43911,1.48022 -3.10436,2.87821 -1.64469,1.37743 -3.35106,2.44648 -1.68581,1.06905 -3.37162,1.72693 -1.68581,0.63732 -3.20716,0.63732 -1.93251,0 -3.37162,-0.53453 -1.4391,-0.53452 -2.3848,-1.5419 -0.9457,-1.02793 -1.41855,-2.48759 -0.47285,-1.48023 -0.47285,-3.35107 0,-1.41854 0.20559,-3.00156 0.22614,-1.58302 0.80179,-3.20715 0.57564,-1.6447 1.5419,-3.28939 0.98681,-1.66525 2.50815,-3.20715 1.17185,-1.19241 2.52872,-1.80917 1.35687,-0.61676 2.59039,-0.61676 0.22615,0 0.57564,0.1028 0.3495,0.0822 0.699,0.2467 0.34949,0.16447 0.67843,0.39062 0.32894,0.22614 0.53453,0.4934 0.65788,0.84291 0.98681,1.60358 0.32894,0.74011 0.32894,1.68581 0,1.48023 -0.41117,2.67263 -0.41117,1.1924 -1.13073,2.24089 -0.69899,1.02794 -1.66525,1.99419 -0.96626,0.96626 -2.07642,2.01475 -0.67844,0.63732 -1.68581,1.39799 -1.00738,0.74011 -2.15866,1.62414 0.16447,0.63732 0.41117,1.11016 0.2467,0.4523 0.61676,0.76068 0.37006,0.30838 0.88402,0.47284 0.53453,0.14392 1.25408,0.14392 0.96626,0 2.05587,-0.32894 1.11016,-0.32894 2.22033,-0.84291 0.96626,-0.45229 1.91196,-1.13073 0.9457,-0.69899 1.91195,-1.4391 0.59621,-0.45229 1.52135,-1.2952 0.94569,-0.86346 1.91195,-1.7886 0.65788,-0.61676 1.31576,-1.1924 0.65787,-0.59621 1.39799,-1.31576 l 1.08961,-1.06905 q 1.1924,-0.96626 1.93251,-0.96626 0.39061,0 0.49341,0.22615 0.10279,0.22614 0.10279,0.43173 z"/><path id="path939" style="font-style:normal;font-variant:normal;font-weight:bold;font-stretch:normal;font-family:'Segoe Script';-inkscape-font-specification:'Segoe Script Bold';text-align:center;text-anchor:middle;fill:#ffffff;stroke-width:2.03976727" d="m 243.61227,238.63669 q 0.18503,0 0.28782,0.22615 0.12336,0.20558 0.12336,0.71955 0,0.80179 -0.53453,1.74749 -0.51397,0.92514 -1.5419,1.74748 -1.00737,0.82235 -2.50816,1.37743 -1.50078,0.53453 -3.45385,0.53453 -1.82972,0 -3.28939,-0.57564 -1.45966,-0.5962 -2.4876,-1.82972 -1.02793,-1.23352 -1.60357,-3.14548 -0.55509,-1.93252 -0.5962,-4.6257 -0.92514,0.78123 -1.8914,1.8914 -0.96626,1.08961 -1.82972,2.22033 -0.86347,1.13073 -1.56246,2.11755 -0.67844,0.98681 -1.04849,1.52134 -0.53453,0.80178 -0.88403,1.35687 -0.32894,0.53452 -0.65787,0.88402 -0.30838,0.32894 -0.699,0.49341 -0.39061,0.14391 -1.04849,0.14391 -0.5962,0 -1.08961,-0.18503 -0.49341,-0.18503 -0.86346,-0.47285 -0.3495,-0.28782 -0.55509,-0.63732 -0.18503,-0.37005 -0.18503,-0.74011 0,-0.3495 0.0411,-0.82234 0.0411,-0.47285 0.10279,-0.96626 0.0822,-0.49341 0.14392,-0.96626 0.0822,-0.49341 0.14391,-0.88402 0.0822,-0.51397 0.16447,-1.08961 0.10279,-0.57564 0.20558,-1.27464 0.12335,-0.69899 0.22615,-1.5419 0.12335,-0.86346 0.22614,-1.91195 0.12335,-1.23352 0.22615,-2.38481 0.12335,-1.17184 0.28782,-2.40536 0.10279,-0.71956 0.26726,-1.31576 0.16447,-0.61676 0.47285,-1.04849 0.30838,-0.43173 0.80179,-0.67844 0.49341,-0.2467 1.27464,-0.2467 0.69899,0 1.11016,0.16447 0.41118,0.16447 0.61676,0.45229 0.20559,0.26726 0.24671,0.63732 0.0617,0.3495 0.0617,0.71955 0,0.20559 -0.0206,0.37006 0,0.16447 -0.0206,0.30838 0,0 -0.0206,0.16447 0,0.16447 -0.0822,0.63732 -0.0822,0.47284 -0.26726,1.33631 -0.16447,0.8429 -0.47285,2.26145 -0.18503,0.82235 -0.39061,1.68581 -0.20559,0.86347 -0.39062,1.6447 -0.16447,0.78123 -0.28782,1.41854 -0.12335,0.61676 -0.16447,0.96626 0.49341,-0.57564 1.15129,-1.41855 0.65787,-0.86346 1.31575,-1.74748 0.65788,-0.88403 1.27464,-1.68581 0.61676,-0.80179 1.04849,-1.2952 0.699,-0.78123 1.35687,-1.48022 0.67844,-0.699 1.39799,-1.21297 0.71956,-0.53452 1.52134,-0.82234 0.80179,-0.30838 1.76805,-0.30838 0.55508,0 0.88402,0.12335 0.32894,0.12335 0.49341,0.3495 0.18503,0.20558 0.22615,0.49341 0.0617,0.26726 0.0617,0.57564 v 0.32894 q 0,0.12335 -0.0617,0.5962 -0.0411,0.45229 -0.12336,0.98681 -0.0617,0.53453 -0.12335,1.00738 -0.0411,0.47285 -0.0411,0.61676 0,1.58302 0.24671,2.96045 0.2467,1.37743 0.76067,2.40536 0.53452,1.00738 1.35687,1.60358 0.82235,0.57564 1.97363,0.57564 0.80179,0 1.39799,-0.0822 0.5962,-0.10279 1.15129,-0.30838 0.57564,-0.22614 1.17184,-0.57564 0.5962,-0.37005 1.37743,-0.88402 0.28782,-0.22615 0.5962,-0.41117 0.26727,-0.16447 0.57565,-0.26727 0.32893,-0.12335 0.65787,-0.12335 z"/><path id="path941" style="font-style:normal;font-variant:normal;font-weight:bold;font-stretch:normal;font-family:'Segoe Script';-inkscape-font-specification:'Segoe Script Bold';text-align:center;text-anchor:middle;fill:#ffffff;stroke-width:2.03976727" d="m 289.23195,231.93457 q 0,0.41117 -0.12335,0.71955 -0.10279,0.28782 -0.3495,0.5962 -0.22614,0.28782 -0.5962,0.63732 -0.37005,0.3495 -0.90458,0.88402 l -1.80916,1.80916 q -0.57565,0.57565 -1.00738,0.96626 -0.43173,0.39062 -0.8429,0.74011 -0.39062,0.32894 -0.82235,0.699 -0.43173,0.3495 -1.04849,0.86346 -1.33631,1.13073 -2.63151,2.11755 -1.2952,0.98681 -2.52872,1.76804 -1.85028,1.17184 -3.96782,1.80916 -2.11754,0.63732 -4.48179,0.63732 -1.5419,0 -2.7343,-0.55508 -1.1924,-0.57564 -2.01475,-1.52134 -0.82235,-0.96626 -1.25408,-2.2409 -0.41117,-1.29519 -0.41117,-2.71374 0,-2.69319 1.13072,-5.40693 1.13073,-2.7343 3.10436,-5.36581 0.49341,-0.65788 1.15129,-1.37743 0.67843,-0.71956 1.41855,-1.2952 0.74011,-0.5962 1.52134,-0.96626 0.78123,-0.39061 1.52134,-0.39061 0.49341,0 0.9457,0.28782 0.47285,0.26726 0.90458,0.74011 0.45229,0.47285 0.8429,1.11017 0.39062,0.61676 0.71956,1.33631 0.65788,1.43911 0.65788,2.09699 0,0.34949 -0.0822,0.86346 -0.0617,0.49341 -0.26726,0.9457 -0.18503,0.45229 -0.51397,0.78123 -0.32894,0.30838 -0.8429,0.30838 -0.76067,0 -1.25408,-0.47285 -0.49341,-0.49341 -0.82235,-1.13073 -0.32894,-0.63732 -0.53452,-1.25408 -0.18503,-0.61676 -0.3495,-0.88402 -0.49341,0.18503 -1.04849,0.71955 -0.53453,0.53453 -1.06905,1.31576 -0.53453,0.78123 -1.00738,1.76804 -0.47285,0.96626 -0.8429,2.07643 -0.3495,1.08961 -0.57565,2.24089 -0.20558,1.15129 -0.20558,2.28202 0,1.04849 0.76067,1.82972 0.86346,0.86346 1.60357,0.86346 2.34369,0 4.50235,-0.86346 2.17922,-0.86347 4.19397,-2.30257 1.35687,-0.96626 2.83709,-2.15866 1.48023,-1.21296 3.24827,-2.89877 0.63732,-0.61676 1.27464,-1.17185 0.65788,-0.57564 1.27464,-1.00737 0.63732,-0.43174 1.1924,-0.699 0.57564,-0.26726 1.06905,-0.26726 1.06905,0 1.06905,1.13073 z"/><path id="path943" style="font-style:normal;font-variant:normal;font-weight:bold;font-stretch:normal;font-family:'Segoe Script';-inkscape-font-specification:'Segoe Script Bold';text-align:center;text-anchor:middle;fill:#ffffff;stroke-width:2.03976727" d="m 297.41431,230.18708 q 0,-0.18503 -0.0822,-0.43173 -0.0617,-0.24671 -0.18503,-0.45229 -0.10279,-0.22615 -0.2467,-0.37006 -0.14391,-0.16447 -0.26726,-0.16447 -1.35688,0 -2.4876,0.74011 -1.11017,0.71956 -2.32313,1.97364 -0.67844,0.67843 -1.45967,1.82972 -0.76067,1.15128 -1.41854,2.44648 -0.65788,1.29519 -1.08961,2.59039 -0.43174,1.2952 -0.43174,2.28201 0,0.24671 0.0206,0.49341 0.0411,0.22615 0.12335,0.41117 0.1028,0.18503 0.26727,0.30838 0.16447,0.12336 0.43173,0.12336 0.78123,0 1.76804,-0.49341 0.98682,-0.51397 1.97364,-1.31576 1.00737,-0.82234 1.93251,-1.87084 0.9457,-1.06905 1.58302,-2.17921 0.78123,-1.35688 1.33631,-2.8371 0.55509,-1.48022 0.55509,-3.0838 z m 18.68782,2.11754 q 0,0.24671 -0.10279,0.5962 -0.0822,0.32894 -0.22615,0.67844 -0.14391,0.32894 -0.32893,0.65788 -0.16447,0.30838 -0.32894,0.53452 -0.1028,0.14391 -0.32894,0.41118 -0.22615,0.2467 -0.51397,0.57564 -0.28782,0.30838 -0.65788,0.67843 -0.34949,0.37006 -0.71955,0.74012 -1.1924,1.11016 -2.42592,2.19977 -1.21296,1.06905 -2.54928,1.91196 -1.33631,0.82235 -2.79597,1.33631 -1.45967,0.51397 -3.10436,0.51397 -0.699,0 -1.41855,-0.30838 -0.71955,-0.30838 -1.33631,-0.84291 -0.61676,-0.53452 -1.08961,-1.27463 -0.45229,-0.76067 -0.63732,-1.62414 -0.37006,0.61676 -0.96626,1.33632 -0.5962,0.69899 -1.31575,1.39798 -0.699,0.699 -1.45967,1.33632 -0.76067,0.61676 -1.41855,1.06905 -0.45229,0.30838 -1.11017,0.63732 -0.63731,0.32894 -1.35687,0.61676 -0.71955,0.26726 -1.45966,0.45229 -0.71956,0.16447 -1.33632,0.16447 -0.98681,0 -1.72692,-0.55509 -0.74012,-0.57564 -1.23352,-1.39799 -0.47285,-0.82234 -0.71956,-1.74748 -0.22614,-0.92514 -0.22614,-1.66525 0,-1.35688 0.39061,-2.75487 0.41118,-1.41854 1.02794,-2.75486 0.63731,-1.33631 1.39798,-2.54927 0.78123,-1.21296 1.52135,-2.15866 0.78123,-0.98682 1.87083,-1.95308 1.08961,-0.98681 2.28202,-1.74748 1.1924,-0.78123 2.34368,-1.25408 1.17185,-0.47285 2.07643,-0.47285 0.49341,0 1.00737,0.0411 0.53453,0.0206 1.0485,0.0822 0.51396,0.0617 0.98681,0.18503 0.47285,0.12335 0.84291,0.30838 0.2467,0.16447 0.53452,0.5962 0.30838,0.41117 0.55509,0.90458 0.26726,0.47285 0.45229,0.9457 0.18503,0.47285 0.18503,0.74011 0,0.57565 -0.18503,1.37743 -0.16447,0.78123 -0.39062,1.6447 -0.20558,0.86346 -0.39061,1.76804 -0.18503,0.90458 -0.18503,1.72693 0,0.57564 0.16447,1.17184 0.16447,0.59621 0.47285,1.08961 0.30838,0.47285 0.74011,0.78123 0.43173,0.30838 0.96626,0.30838 1.21296,0 2.40536,-0.45229 1.1924,-0.45229 2.38481,-1.23352 1.1924,-0.80179 2.3848,-1.87084 1.19241,-1.08961 2.40537,-2.34368 0.0411,0 0.32894,-0.30838 0.28782,-0.30838 0.67843,-0.67844 0.41117,-0.37006 0.84291,-0.67844 0.45229,-0.30838 0.78123,-0.30838 0.5962,0 0.78123,0.3495 0.18502,0.3495 0.18502,1.06905 z"/><path id="path945" style="font-style:normal;font-variant:normal;font-weight:bold;font-stretch:normal;font-family:'Segoe Script';-inkscape-font-specification:'Segoe Script Bold';text-align:center;text-anchor:middle;fill:#ffffff;stroke-width:2.03976727" d="m 334.35823,231.23557 q 0,0.55509 -0.49341,1.39799 -0.49341,0.82235 -1.25408,1.74749 -0.74011,0.92514 -1.66525,1.89139 -0.92514,0.9457 -1.7886,1.78861 -0.51397,0.49341 -1.52134,1.37743 -1.00738,0.86346 -2.26146,1.91196 -1.23352,1.04849 -2.59039,2.17921 -1.35687,1.11017 -2.56983,2.07643 -1.1924,0.96626 -2.11754,1.68581 -0.92514,0.71955 -1.31576,0.98682 -1.27464,0.8429 -2.3848,1.29519 -1.08961,0.45229 -1.95308,0.45229 -0.71955,0 -1.21296,-0.14391 -0.49341,-0.12335 -0.80179,-0.3495 -0.30838,-0.20558 -0.45229,-0.4934 -0.14391,-0.26727 -0.14391,-0.55509 0,-0.71955 0.26726,-1.29519 0.26727,-0.55509 0.82235,-1.0485 0.57564,-0.4934 1.43911,-0.94569 0.88402,-0.47285 2.07642,-0.96626 0.78123,-0.30838 1.39799,-0.5962 0.63732,-0.28782 1.08961,-0.61676 0.47285,-0.3495 0.71955,-0.78123 0.24671,-0.43173 0.24671,-1.04849 0,-0.14391 -0.20559,-0.53453 -0.18503,-0.39061 -0.49341,-0.90458 -0.30838,-0.51397 -0.69899,-1.11017 -0.37006,-0.61676 -0.74011,-1.1924 -0.37006,-0.5962 -0.699,-1.11017 -0.32894,-0.51397 -0.51396,-0.86346 -0.84291,-1.56246 -0.84291,-3.1866 0,-0.69899 0.12335,-1.4391 0.12336,-0.74012 0.41118,-1.50079 0.26726,-0.94569 0.86346,-1.85028 0.61676,-0.90458 1.35687,-1.60357 0.74011,-0.71956 1.48023,-1.15129 0.76067,-0.43173 1.31575,-0.43173 0.74011,0 1.21296,0.14391 0.47285,0.12335 0.71956,0.41117 0.26726,0.26727 0.37005,0.699 0.10279,0.41117 0.10279,1.00737 0,0.49341 -0.2467,0.96626 -0.2467,0.47285 -0.5962,0.88402 -0.3495,0.41118 -0.74011,0.76067 -0.39062,0.3495 -0.67844,0.61676 -0.43173,0.39062 -0.82235,0.74012 -0.39061,0.32894 -0.61676,0.57564 0.0206,1.2952 0.63732,2.3848 0.30838,0.53453 0.76067,1.31576 0.47285,0.78123 0.9457,1.60358 0.49341,0.80178 0.92514,1.5419 0.43173,0.74011 0.67844,1.17184 0.30838,-0.14391 0.88402,-0.53453 0.5962,-0.41117 1.37743,-0.96625 0.78123,-0.57565 1.66525,-1.27464 0.90459,-0.699 1.80917,-1.43911 0.90458,-0.74011 1.74748,-1.45966 0.84291,-0.74011 1.52134,-1.39799 0.57565,-0.55509 0.9457,-0.9457 0.39062,-0.41117 0.65788,-0.65788 0.28782,-0.26726 0.49341,-0.39061 0.20559,-0.14391 0.45229,-0.14391 0.26726,0 0.43173,0.20558 0.18503,0.18503 0.28782,0.43174 0.1028,0.22614 0.14391,0.43173 0.0411,0.20558 0.0411,0.2467 z"/><path id="path947" style="font-style:normal;font-variant:normal;font-weight:bold;font-stretch:normal;font-family:'Segoe Script';-inkscape-font-specification:'Segoe Script Bold';text-align:center;text-anchor:middle;fill:#ffffff;stroke-width:2.03976727" d="m 330.63711,239.93189 q 0,-0.9457 0.10279,-1.8914 0.12335,-0.96626 0.28782,-1.8914 0.18503,-0.9457 0.39062,-1.82972 0.20559,-0.88402 0.37005,-1.68581 0.22615,-1.06905 0.41118,-1.91196 0.18503,-0.8429 0.22614,-1.56245 -0.30838,0.0617 -0.69899,0.12335 -0.37006,0.0411 -0.76067,0.10279 -0.39062,0.0411 -0.76067,0.0617 -0.37006,0.0206 -0.61676,0.0206 -0.63732,0 -1.11017,-0.0822 -0.45229,-0.10279 -0.76067,-0.3495 -0.30838,-0.26726 -0.45229,-0.71955 -0.14391,-0.47285 -0.14391,-1.1924 0,-0.45229 0.20558,-0.76067 0.22615,-0.30838 0.57565,-0.49341 0.37005,-0.18503 0.80178,-0.2467 0.4523,-0.0822 0.88403,-0.0822 0.16447,0 0.63732,-0.0411 0.47285,-0.0617 1.00737,-0.12335 0.53453,-0.0617 1.04849,-0.12335 0.51397,-0.0617 0.76067,-0.0822 0.16447,0 0.30838,-0.2467 0.16447,-0.2467 0.28782,-0.57564 0.14392,-0.3495 0.24671,-0.699 0.10279,-0.37005 0.14391,-0.61676 0.10279,-0.55508 0.28782,-1.35687 0.20559,-0.80179 0.43173,-1.64469 0.24671,-0.84291 0.49341,-1.60358 0.26726,-0.78123 0.51397,-1.23352 0.32894,-0.63732 0.71955,-0.96626 0.39062,-0.32893 1.17184,-0.32893 1.08961,0 1.58302,0.51396 0.51397,0.51397 0.51397,1.58302 0,0.49341 -0.22615,1.27464 -0.20558,0.78123 -0.47285,1.68581 -0.26726,0.88402 -0.51396,1.80916 -0.22615,0.90458 -0.24671,1.62414 0.41118,0 1.19241,-0.0822 0.78123,-0.0822 1.64469,-0.18503 0.86346,-0.12335 1.64469,-0.2467 0.80179,-0.12335 1.21296,-0.20559 0.86347,-0.18503 1.31576,-0.26726 0.47285,-0.10279 0.8429,-0.18503 0.39062,-0.0822 0.82235,-0.18503 0.45229,-0.12335 1.25408,-0.34949 0.30838,0.2467 0.49341,0.39061 0.18503,0.14391 0.26726,0.2467 0.10279,0.0822 0.12335,0.16447 0.0411,0.0822 0.0411,0.18503 0,0.80179 -0.74011,1.48023 -0.74011,0.65787 -1.87084,1.17184 -1.13073,0.51397 -2.46704,0.88402 -1.31576,0.3495 -2.4876,0.55509 -0.86346,0.14391 -1.56246,0.2467 -0.67843,0.10279 -1.1924,0.20559 -0.51397,0.0822 -0.84291,0.20558 -0.32894,0.1028 -0.4934,0.26727 -0.26727,0.92514 -0.61676,2.22033 -0.32894,1.27464 -0.63732,2.69319 -0.30838,1.41855 -0.51397,2.87821 -0.20559,1.43911 -0.20559,2.69319 0,1.41854 0.55509,2.11754 0.55508,0.69899 1.56246,0.69899 0.92514,0 1.80916,-0.12335 0.90458,-0.14391 1.87084,-0.49341 0.98681,-0.37005 2.07642,-0.98681 1.11017,-0.61676 2.46704,-1.58302 0.37006,-0.28782 0.76067,-0.63732 0.41118,-0.3495 0.82235,-0.65788 0.41117,-0.32893 0.84291,-0.53452 0.43173,-0.22615 0.88402,-0.22615 0.41117,0 0.63732,0.20559 0.2467,0.18503 0.2467,0.5962 0,0.30838 -0.20559,0.76067 -0.20558,0.43173 -0.57564,0.92514 -0.37005,0.49341 -0.88402,1.02794 -0.49341,0.51396 -1.11017,0.98681 -1.1924,0.9457 -2.50816,1.80916 -1.29519,0.84291 -2.65206,1.48023 -1.33632,0.63732 -2.69319,1.00737 -1.35687,0.37006 -2.69319,0.37006 -1.64469,0 -2.79597,-0.49341 -1.15129,-0.51397 -1.8914,-1.35687 -0.71955,-0.84291 -1.06905,-1.91196 -0.32894,-1.08961 -0.32894,-2.22033 z"/><path id="path949" style="font-style:normal;font-variant:normal;font-weight:bold;font-stretch:normal;font-family:'Segoe Script';-inkscape-font-specification:'Segoe Script Bold';text-align:center;text-anchor:middle;fill:#ffffff;stroke-width:2.03976727" d="m 359.06974,227.7406 q 0,-0.80179 -0.26726,-1.13073 -0.2467,-0.32894 -0.49341,-0.32894 -0.55508,0 -1.13072,0.37006 -0.55509,0.37005 -1.08961,0.98681 -0.51397,0.61676 -1.00738,1.41855 -0.47285,0.78123 -0.8429,1.6447 -0.37006,0.8429 -0.61676,1.68581 -0.24671,0.82234 -0.32894,1.50078 1.29519,-1.04849 2.36424,-1.95307 1.06905,-0.92514 1.80917,-1.70637 0.76067,-0.78123 1.17184,-1.39799 0.43173,-0.63732 0.43173,-1.08961 z m 15.46012,-0.26726 q 0,0.45229 -0.41117,1.50078 -0.41118,1.04849 -1.13073,2.3848 -0.71955,1.31576 -1.68581,2.79598 -0.96626,1.45967 -2.07643,2.75486 -1.15128,1.35688 -2.59039,2.65207 -1.4391,1.2952 -3.10436,2.32313 -1.64469,1.00738 -3.49497,1.62414 -1.82972,0.61676 -3.80335,0.61676 -2.11755,0 -3.59777,-0.67844 -1.48022,-0.699 -2.42592,-1.82972 -0.92514,-1.13073 -1.35687,-2.56984 -0.41118,-1.4391 -0.41118,-2.91933 0,-1.29519 0.24671,-2.59039 0.26726,-1.31575 0.71955,-2.56983 0.47285,-1.25408 1.11017,-2.42592 0.63732,-1.17185 1.41855,-2.15866 0.4934,-0.63732 1.21296,-1.35688 0.74011,-0.71955 1.66525,-1.31575 0.9457,-0.61676 2.05587,-1.00738 1.11016,-0.41117 2.36424,-0.41117 0.96626,0 1.68581,0.41117 0.74011,0.39062 1.21296,1.00738 0.49341,0.61676 0.74012,1.37743 0.2467,0.74011 0.2467,1.41855 0,1.21296 -0.47285,2.3848 -0.47285,1.17185 -1.50078,2.40537 -1.02794,1.23352 -2.69319,2.56983 -1.64469,1.33631 -4.00894,2.85766 -0.16447,0.10279 -0.37005,0.22614 -0.20559,0.12335 -0.39062,0.2467 -0.18503,0.12336 -0.30838,0.22615 -0.10279,0.0822 -0.10279,0.10279 0.10279,0.45229 0.26726,0.90458 0.16447,0.4523 0.53453,0.82235 0.37005,0.3495 1.00737,0.57564 0.63732,0.22615 1.66525,0.22615 0.80179,0 1.70637,-0.16447 0.90458,-0.18503 1.82972,-0.53453 0.92514,-0.34949 1.80917,-0.8429 0.90458,-0.51397 1.70637,-1.17184 1.04849,-0.84291 2.19977,-1.9942 1.15129,-1.15128 2.26146,-2.48759 1.13072,-1.35688 2.1381,-2.85766 1.02793,-1.50078 1.80916,-3.06324 0.30838,-0.5962 0.80179,-0.82235 0.49341,-0.22614 0.8429,-0.22614 0.24671,0 0.45229,0.32894 0.22615,0.32894 0.22615,1.25408 z"/><path id="path951" style="font-style:normal;font-variant:normal;font-weight:bold;font-stretch:normal;font-family:'Segoe Script';-inkscape-font-specification:'Segoe Script Bold';text-align:center;text-anchor:middle;fill:#ffffff;stroke-width:2.03976727" d="m 390.89456,232.51021 q 0,0.30838 -0.41117,1.06905 -0.39062,0.74011 -1.08961,1.76804 -0.699,1.02794 -1.66525,2.26146 -0.96626,1.21296 -2.09699,2.44648 -1.11016,1.21296 -2.36424,2.36425 -1.25408,1.13072 -2.52872,2.01475 -1.27464,0.86346 -2.52871,1.39798 -1.23352,0.53453 -2.38481,0.53453 -1.68581,0 -2.75486,-0.57564 -1.06905,-0.5962 -1.68581,-1.56246 -0.5962,-0.96626 -0.82235,-2.19978 -0.20559,-1.25408 -0.20559,-2.56983 0,-0.74011 0.12336,-2.17922 0.12335,-1.45967 0.37005,-3.30995 0.24671,-1.85028 0.5962,-3.94726 0.37006,-2.11754 0.84291,-4.21453 0.49341,-2.09698 1.08961,-4.0295 0.61676,-1.93251 1.33631,-3.39218 0.71956,-1.48022 1.5419,-2.36424 0.84291,-0.88402 1.78861,-0.88402 0.71955,0 1.06905,0.53452 0.37005,0.53453 0.37005,1.70637 0,0 -0.16447,0.53453 -0.16447,0.51396 -0.41117,1.31575 -0.2467,0.78123 -0.55508,1.72693 -0.28783,0.92514 -0.55509,1.76804 -0.2467,0.82235 -0.45229,1.43911 -0.18503,0.61676 -0.22614,0.76067 -0.53453,1.82972 -0.96626,3.70056 -0.41117,1.85028 -0.71955,3.65944 -0.28783,1.78861 -0.4523,3.49498 -0.14391,1.70637 -0.14391,3.24827 0,0.76067 0.16447,1.33631 0.16447,0.55508 0.43174,0.90458 0.26726,0.3495 0.61676,0.53453 0.37005,0.16447 0.76067,0.16447 0.67843,0 1.5419,-0.37006 0.86346,-0.37006 1.80916,-1.00738 0.9457,-0.65787 1.93251,-1.50078 1.00738,-0.8429 1.97363,-1.7886 0.98682,-0.96626 1.8914,-1.97363 0.92514,-1.00738 1.70637,-1.95308 0.22615,-0.26726 0.53453,-0.55508 0.32894,-0.28782 0.65787,-0.51397 0.3495,-0.22614 0.67844,-0.37005 0.3495,-0.16447 0.61676,-0.16447 0.26726,0 0.49341,0.14391 0.2467,0.14391 0.2467,0.5962 z"/><path id="path953" style="font-style:normal;font-variant:normal;font-weight:bold;font-stretch:normal;font-family:'Segoe Script';-inkscape-font-specification:'Segoe Script Bold';text-align:center;text-anchor:middle;fill:#ffffff;stroke-width:2.03976727" d="m 407.52652,233.5587 q 0,0.47285 -0.2467,1.1924 -0.22615,0.699 -0.78123,1.6447 -0.55509,0.92514 -1.48023,2.09698 -0.92514,1.17184 -2.30257,2.56983 -0.76067,0.76067 -1.72693,1.52135 -0.94569,0.76067 -2.01475,1.35687 -1.06905,0.57564 -2.22033,0.9457 -1.13073,0.37005 -2.26145,0.37005 -1.52135,0 -2.85766,-0.53452 -1.31575,-0.53453 -2.30257,-1.62414 -0.98682,-1.11017 -1.56246,-2.77542 -0.55508,-1.66525 -0.55508,-3.90614 0,-1.45967 0.14391,-3.02213 0.14391,-1.58302 0.3495,-3.18659 0.22614,-1.60358 0.4934,-3.16604 0.28783,-1.58301 0.55509,-3.02212 0.18503,-0.98682 0.30838,-1.74749 0.12335,-0.76067 0.22614,-1.52134 0.12336,-0.76067 0.26727,-1.62413 0.14391,-0.88403 0.34949,-2.07643 0.1028,-0.57564 0.3495,-1.08961 0.2467,-0.53452 0.61676,-0.92514 0.39062,-0.41117 0.90458,-0.63732 0.51397,-0.2467 1.13073,-0.2467 1.52134,0 2.22033,1.41855 l -0.22614,1.17184 q -0.18503,0.98682 -0.49341,2.32313 -0.28782,1.31576 -0.63732,2.87821 -0.32894,1.56246 -0.67843,3.28939 -0.32894,1.70637 -0.61676,3.47442 -0.26727,1.76804 -0.45229,3.51553 -0.16447,1.74748 -0.16447,3.37162 0,1.23352 0.16447,2.24089 0.18502,1.00738 0.57564,1.72693 0.39061,0.699 1.00737,1.08961 0.61676,0.39062 1.48023,0.39062 0.86346,0 1.7886,-0.3495 0.92514,-0.37006 1.85028,-0.9457 0.9457,-0.57564 1.82972,-1.31576 0.90458,-0.74011 1.68581,-1.48022 0.78123,-0.76067 1.39799,-1.45966 0.61676,-0.71956 1.00738,-1.23352 0.18502,-0.24671 0.39061,-0.51397 0.22615,-0.28782 0.49341,-0.53453 0.28782,-0.2467 0.5962,-0.41117 0.32894,-0.16447 0.699,-0.16447 0.28782,0 0.4934,0.2467 0.20559,0.22615 0.20559,0.67844 z"/><path id="path955" style="font-style:normal;font-variant:normal;font-weight:bold;font-stretch:normal;font-family:'Segoe Script';-inkscape-font-specification:'Segoe Script Bold';text-align:center;text-anchor:middle;fill:#ffffff;stroke-width:2.03976727" d="m 417.51804,227.28831 q 0,-0.0617 -0.0411,-0.22615 -0.0206,-0.18503 -0.0617,-0.28782 -0.67844,0.0822 -1.50079,0.53453 -0.80178,0.43173 -1.74748,1.33631 -0.92514,0.90458 -1.99419,2.34369 -1.06905,1.41855 -2.2409,3.47441 -0.30838,0.55509 -0.65788,1.21296 -0.34949,0.63732 -0.65787,1.37743 -0.28782,0.74012 -0.47285,1.58302 -0.18503,0.82235 -0.18503,1.74749 0,0.3495 0.18503,0.53452 0.20558,0.16447 0.41117,0.16447 0.47285,0 1.21296,-0.53452 0.76067,-0.55509 1.62414,-1.45967 0.88402,-0.90458 1.7886,-2.05586 0.92514,-1.17185 1.70637,-2.38481 0.78123,-1.23352 1.35687,-2.42592 0.5962,-1.21296 0.82235,-2.17922 0.0617,-0.30838 0.14391,-0.71955 0.0822,-0.41118 0.14391,-0.80179 0.0822,-0.41118 0.12335,-0.74011 0.0411,-0.32894 0.0411,-0.49341 z m 16.59084,2.59039 q 0,0.37006 -0.12335,0.78123 -0.12335,0.41117 -0.32894,0.82235 -0.18502,0.41117 -0.43173,0.82234 -0.2467,0.41118 -0.51397,0.76067 -1.1924,1.60358 -2.56983,3.02213 -1.35687,1.39799 -2.7343,2.63151 -0.74011,0.65787 -1.52134,1.1924 -0.78123,0.53452 -1.56246,0.92514 -0.78123,0.39061 -1.52134,0.5962 -0.74011,0.20559 -1.37743,0.20559 -0.78123,0 -1.50079,-0.49341 -0.71955,-0.49341 -1.27463,-1.23352 -0.53453,-0.76067 -0.86347,-1.62414 -0.30838,-0.86346 -0.30838,-1.60357 -0.2467,0.37005 -0.71955,0.98681 -0.47285,0.61676 -0.98682,1.25408 -0.51396,0.63732 -0.96625,1.17185 -0.43174,0.51396 -0.61676,0.74011 -0.65788,0.69899 -1.52135,1.43911 -0.86346,0.74011 -1.72692,1.33631 -0.84291,0.5962 -1.58302,0.98681 -0.74011,0.37006 -1.13073,0.37006 -0.90458,0 -1.74748,-0.28782 -0.84291,-0.28782 -1.50079,-0.82235 -0.63732,-0.55508 -1.02793,-1.35687 -0.39061,-0.80179 -0.39061,-1.82972 0,-1.00738 0.26726,-2.19978 0.28782,-1.21296 0.76067,-2.50816 0.49341,-1.31575 1.17184,-2.65206 0.67844,-1.33632 1.45967,-2.5904 0.80179,-1.27463 1.68581,-2.40536 0.88402,-1.13073 1.80916,-2.01475 1.64469,-1.56246 3.49497,-2.30257 1.85028,-0.74011 3.82392,-0.74011 0.51396,0 0.86346,0.14391 0.3495,0.14391 0.5962,0.39061 0.24671,0.22615 0.41118,0.53453 0.18502,0.30838 0.32893,0.61676 0.1028,0.14391 0.32894,0.41117 0.24671,0.24671 0.49341,0.55509 0.2467,0.30838 0.43173,0.61676 0.18503,0.30838 0.18503,0.55508 0,0.43173 -0.12335,0.9457 -0.12335,0.49341 -0.26726,1.15128 -0.12336,0.65788 -0.24671,1.50079 -0.12335,0.82234 -0.12335,1.91195 0,0.61676 0.0822,1.43911 0.1028,0.82235 0.28783,1.5419 0.18502,0.71955 0.45229,1.23352 0.28782,0.49341 0.63732,0.49341 0.43173,0 0.76067,-0.0822 0.34949,-0.10279 0.65787,-0.26726 0.30838,-0.18503 0.61676,-0.43173 0.32894,-0.24671 0.74012,-0.53453 1.27463,-0.92514 2.54927,-2.1381 1.2952,-1.21296 2.63151,-2.4876 0.37006,-0.34949 0.76067,-0.78123 0.41117,-0.43173 0.82235,-0.80178 0.43173,-0.37006 0.8429,-0.61676 0.41118,-0.24671 0.78123,-0.24671 0.57564,0 0.57564,0.96626 z"/><path id="path957" style="font-style:normal;font-variant:normal;font-weight:bold;font-stretch:normal;font-family:'Segoe Script';-inkscape-font-specification:'Segoe Script Bold';text-align:center;text-anchor:middle;fill:#ffffff;stroke-width:2.03976727" d="m 466.59157,231.40004 q 0,0.39062 -0.14391,0.86346 -0.14391,0.4523 -0.37005,0.90459 -0.20559,0.45229 -0.47285,0.86346 -0.24671,0.39061 -0.47285,0.65788 -0.65788,0.82234 -1.48023,1.74748 -0.80178,0.92514 -1.68581,1.82973 -0.88402,0.90458 -1.80916,1.74748 -0.92514,0.82235 -1.85028,1.43911 -0.71955,0.49341 -1.39799,0.92514 -0.65788,0.41117 -1.37743,0.74011 -0.69899,0.32894 -1.50078,0.51397 -0.78123,0.18503 -1.72693,0.18503 -1.5419,0 -2.56983,-0.61676 -1.00738,-0.61676 -1.6447,-1.6447 -0.63732,-1.02793 -0.98681,-2.34369 -0.32894,-1.33631 -0.51397,-2.77542 -0.26726,-1.95307 -0.5962,-3.0838 -0.32894,-1.15128 -0.80179,-1.15128 -0.41117,0 -0.80179,0.20559 -0.39061,0.18502 -0.98681,0.82234 -0.57565,0.63732 -1.48023,1.87084 -0.88402,1.21296 -2.32313,3.24827 -0.4934,0.69899 -1.21296,1.56246 -0.69899,0.86346 -1.48022,1.66525 -0.78123,0.78123 -1.56246,1.39799 -0.76067,0.5962 -1.41855,0.82235 -2.59039,-0.57565 -2.59039,-4.95464 0,-1.11017 0.2467,-3.26883 0.12336,-0.96626 0.26727,-2.03531 0.16447,-1.06905 0.39061,-2.1381 0.2467,-1.08961 0.57564,-2.11754 0.32894,-1.04849 0.76067,-1.93252 0.24671,-0.4934 0.55509,-0.78123 0.30838,-0.28782 0.61676,-0.43173 0.32894,-0.14391 0.67843,-0.18503 0.3495,-0.0411 0.699,-0.0411 0.30838,0 0.5962,0.16447 0.28782,0.14391 0.51397,0.43173 0.22614,0.28782 0.34949,0.69899 0.14391,0.41118 0.14391,0.9457 0,0.47285 -0.0822,0.90458 -0.0822,0.43173 -0.22615,0.90458 -0.14391,0.45229 -0.30838,0.96626 -0.14391,0.51397 -0.30838,1.17185 -0.10279,0.43173 -0.30838,1.11016 -0.18502,0.67844 -0.39061,1.41855 -0.18503,0.71955 -0.3495,1.41855 -0.16447,0.69899 -0.20558,1.17184 0.37005,-0.43173 0.8429,-1.06905 0.49341,-0.65787 1.02793,-1.39799 0.53453,-0.76067 1.08961,-1.5419 0.55509,-0.78123 1.11017,-1.48022 0.71956,-0.90458 1.41855,-1.70637 0.69899,-0.80179 1.45967,-1.37743 0.78122,-0.5962 1.68581,-0.92514 0.90458,-0.3495 2.0353,-0.3495 1.33632,0 2.17922,0.55509 0.84291,0.53452 1.33632,1.50078 0.51396,0.96626 0.76067,2.30257 0.2467,1.31575 0.39061,2.87821 0.0822,0.80179 0.20559,1.6447 0.14391,0.8429 0.41117,1.5419 0.26726,0.67843 0.699,1.13072 0.43173,0.43173 1.06905,0.43173 0.9457,0 2.05586,-0.4934 1.13073,-0.51397 2.36425,-1.39799 1.23352,-0.88403 2.52872,-2.05587 1.29519,-1.17184 2.59039,-2.50816 0.41117,-0.43173 0.78123,-0.8429 0.39061,-0.43173 0.74011,-0.76067 0.3495,-0.3495 0.67844,-0.55509 0.32893,-0.20558 0.65787,-0.20558 0.12335,0 0.28782,0.0411 0.16447,0.0206 0.30838,0.12336 0.14391,0.0822 0.22615,0.2467 0.10279,0.16447 0.10279,0.45229 z"/><path id="path959" style="font-style:normal;font-variant:normal;font-weight:bold;font-stretch:normal;font-family:'Segoe Script';-inkscape-font-specification:'Segoe Script Bold';text-align:center;text-anchor:middle;fill:#ffffff;stroke-width:2.03976727" d="m 480.75648,232.63356 q 0,0.65788 -0.0617,1.21296 -0.0617,0.53453 -0.20559,1.04849 -0.14391,0.51397 -0.3495,1.02794 -0.20559,0.51396 -0.49341,1.13072 -0.34949,0.76067 -1.11016,1.70637 -0.76067,0.92514 -1.78861,1.87084 -1.02793,0.9457 -2.26145,1.85028 -1.21296,0.88402 -2.52872,1.58302 -1.29519,0.69899 -2.59039,1.13073 -1.2952,0.41117 -2.46704,0.41117 -1.52134,0 -2.65207,-0.49341 -1.13072,-0.49341 -1.89139,-1.29519 -0.76068,-0.80179 -1.13073,-1.82973 -0.37006,-1.02793 -0.37006,-2.09698 0,-0.98682 0.3495,-2.28201 0.3495,-1.31576 0.90458,-2.63151 0.55509,-1.33631 1.21296,-2.52872 0.65788,-1.21296 1.27464,-1.99419 0.71955,-0.92514 1.74749,-1.7886 1.02793,-0.86347 2.28201,-1.52134 1.25408,-0.67844 2.67263,-1.08961 1.4391,-0.41118 2.96044,-0.41118 1.21296,0 2.38481,0.57565 1.17184,0.57564 2.07642,1.5419 0.92514,0.9457 1.48023,2.22033 0.55508,1.25408 0.55508,2.65207 z m -4.39955,0.45229 q 0,-1.74749 -0.96626,-2.75486 -0.9457,-1.00737 -2.75486,-1.00737 -0.5962,0 -1.25408,0.37005 -0.65788,0.3495 -1.27464,0.90458 -0.61676,0.53453 -1.17184,1.15129 -0.53453,0.61676 -0.90458,1.11017 -0.37006,0.51396 -0.82235,1.35687 -0.45229,0.82234 -0.8429,1.76804 -0.39062,0.92514 -0.65788,1.87084 -0.26726,0.9457 -0.26726,1.68581 0,0.37006 0.12335,0.74011 0.14391,0.37006 0.37005,0.67844 0.24671,0.28782 0.55509,0.49341 0.32894,0.18503 0.71955,0.18503 0.57564,0 1.48022,-0.32894 0.90459,-0.32894 1.91196,-0.90458 1.02793,-0.57565 2.03531,-1.37743 1.02793,-0.80179 1.85028,-1.74749 0.8429,-0.96626 1.35687,-2.01475 0.51397,-1.06905 0.51397,-2.17922 z"/></g></g></svg>