<svg xmlns="http://www.w3.org/2000/svg" xmlns:cc="http://creativecommons.org/ns#" xmlns:dc="http://purl.org/dc/elements/1.1/" xmlns:rdf="http://www.w3.org/1999/02/22-rdf-syntax-ns#" id="svg20" width="1038" height="437" fill="none" version="1.1" viewBox="0 0 1038 437"><metadata id="metadata26"></metadata><path id="path4" d="m1020.4-17.521h-1000.2c-17.655 0-31.966 17.968-31.966 40.132v392.12c0 22.161 14.311 40.129 31.966 40.129h1000.2c17.652 0 31.964-17.968 31.964-40.129v-392.12c0-22.164-14.311-40.132-31.964-40.132z" fill="#48373e" stroke-width="2.8015"/><path id="path14" d="m513.7 136.3h153.06" fill="#520" stroke="#fff" stroke-linecap="round" stroke-miterlimit="10" stroke-width="36.028"/><path id="path16" d="m513.7 319.9h283.65" fill="#520" stroke="#fff" stroke-linecap="round" stroke-miterlimit="10" stroke-width="36.028"/><path id="path18" d="m513.7 228.1h363.08" fill="#520" opacity=".4" stroke="#fff" stroke-linecap="round" stroke-miterlimit="10" stroke-width="36.028"/><g id="g841" transform="matrix(.79433 0 0 .85088 29.086 159.47)" clip-rule="evenodd" fill="#f6ffd5" stroke-linejoin="round" stroke-miterlimit="1.4142"><path id="path2" d="m235.83 71.564-7.98-1e-3c-1.213 1e-3 -2.197 0.987-2.197 2.204v15.327l-0.158 0.132c-4.696 3.962-10.634 6.14-16.719 6.14-14.356 0-26.034-11.68-26.034-26.037 0-14.358 11.678-26.035 26.034-26.035 5.582 0 10.919 1.767 15.437 5.113 0.877 0.649 2.093 0.56 2.866-0.211l5.69-5.69c0.444-0.442 0.675-1.055 0.639-1.681-0.034-0.627-0.336-1.206-0.828-1.597-6.76-5.363-15.214-8.314-23.805-8.314-21.18 0-38.414 17.233-38.414 38.415 0 21.183 17.234 38.415 38.414 38.415 10.937 0 21.397-4.705 28.698-12.914 0.358-0.403 0.556-0.921 0.556-1.46v-19.603c0-1.217-0.985-2.203-2.2-2.203"/><path id="path4-3" d="m502.79 34.445c-0.408-0.616-1.1-0.989-1.838-0.989h-8.684c-0.879 0-1.673 0.522-2.022 1.329l-24.483 56.839-24.92-56.852c-0.352-0.799-1.142-1.316-2.012-1.316h-8.713c-0.744 0-1.44 0.373-1.843 0.995-0.408 0.623-0.476 1.408-0.174 2.09l30.186 68.858c0.352 0.799 1.143 1.317 2.017 1.317h10.992c0.879 0 1.673-0.527 2.021-1.329l29.655-68.861c0.289-0.68 0.222-1.461-0.182-2.081"/><path id="path6" d="m388.68 34.772c-0.353-0.798-1.142-1.316-2.017-1.316h-10.988c-0.879 0-1.673 0.522-2.021 1.329l-29.655 68.861c-0.294 0.675-0.226 1.46 0.182 2.077 0.407 0.619 1.096 0.993 1.838 0.993h8.684c0.879 0 1.673-0.526 2.022-1.329l24.478-56.842 24.92 56.854c0.353 0.798 1.143 1.317 2.013 1.317h8.717c0.744 0 1.44-0.374 1.843-0.993 0.408-0.624 0.471-1.41 0.174-2.094z"/><path id="path8" d="m309.2 81.525 0.476-0.229c8.675-4.191 14.279-13.087 14.279-22.667 0-13.881-11.295-25.174-25.176-25.174h-31.863c-1.214 0-2.199 0.988-2.199 2.202v68.855c0 1.219 0.985 2.204 2.199 2.204h7.979c1.214 0 2.2-0.985 2.2-2.204v-58.679h21.684c7.059 0 12.799 5.739 12.799 12.796 0 5.885-3.996 10.989-9.728 12.408-1.032 0.261-2.064 0.393-3.071 0.393h-7.977c-0.829 0-1.585 0.467-1.959 1.205-0.378 0.74-0.305 1.625 0.187 2.296l22.62 30.884c0.412 0.566 1.07 0.901 1.771 0.901h9.915c0.827 0 1.587-0.467 1.96-1.207 0.378-0.742 0.302-1.629-0.186-2.296z"/><path id="path10" d="m107.19 80.969c-7.255-4.794-11.4-8.845-15.011-16.109-2.47 4.977-8.236 12.376-17.962 18.198-4.856 15.106-27.954 44.015-35.43 39.916-2.213-1.212-2.633-2.808-2.133-4.456 0.536-4.129 9.078-13.62 9.078-13.62s0.18 1.992 2.913 6.187c-3.609-11.205 5.965-25.031 8.5-29.738 3.985-1.269 4.274-6.387 4.274-6.387 0.255-7.909-3.278-13.635-6.701-17.059 2.459 3.002 3.255 7.539 3.372 11.694v0.023c0.012 0.469 0.012 0.93 0.011 1.39-0.117 3.439-1.157 8.19-3.383 8.19l6e-3 0.03c-2.289-0.098-5.115 0.391-7.639 1.18l-5.582 1.334s2.977-0.136 4.584 1.252c-1.79 2.915-5.769 6.533-10.206 8.588-6.457 2.995-8.312-2.964-5.034-6.838 0.805-0.946 1.618-1.745 2.387-2.399-0.495-0.513-0.807-1.198-0.889-2.068-1e-3 -5e-3 -4e-3 -9e-3 -5e-3 -0.013-0.45-1.977-0.202-4.543 2.596-8.623 0.551-0.863 1.214-1.748 2.007-2.647 0.025-0.031 0.046-0.059 0.072-0.089 0.034-0.042 0.072-0.08 0.108-0.121 0.02-0.023 0.039-0.045 0.059-0.068 0.2-0.228 0.413-0.45 0.639-0.663 3.334-3.414 8.599-6.966 16.897-10.152 9.675-14.223 13.219-16.89 13.219-16.89 1.071-1.096 2.943-2.458 3.632-2.805-5.053-8.781-6.074-21.158-4.75-24.493-0.107 0.18-0.206 0.365-0.287 0.556 0.49-1.143 0.819-1.509 1.328-2.111 1.381-1.632 6.058-2.488 7.737 0.971 0.895 1.844 1.063 4.232 1.034 6.023-3.704-0.193-7.063 4.036-7.063 4.036s3.067-1.448 6.879-1.473c0 0 1.015 0.883 2.283 2.542-1.712 3.213-4.524 10.021-2.488 17.168 0.338 1.408 0.849 2.619 1.483 3.648 0.024 0.045 0.044 0.089 0.069 0.135 0.051 0.066 0.096 0.122 0.144 0.183 3.368 5.072 9.542 5.665 9.542 5.665-2.906-1.45-5.274-3.76-6.816-6.56-0.8-1.498-1.291-2.762-1.592-3.761-1.636-6.313 0.771-9.999 2.149-12.471 3.17-4.917 8.944-7.893 15.151-7.185 8.712 0.995 14.968 8.862 13.973 17.571-0.608 5.321-3.781 9.723-8.142 12.117 1.049 2.839-0.073 6.28-0.073 6.28 2.642 3.323 2.758 5.238 2.667 7.017-3.357-0.565-6.618 1.701-6.618 1.701s6.476-1.546 10.238 1.81c2.446 2.631 4.078 5.009 5.051 6.766 1.393 2.505 7.859 2.683 7.123 7.188-0.737 4.499-5.669 4.542-13.401-0.56m-37.62-80.969c-38.424 0-69.571 31.148-69.571 69.567 0 38.422 31.147 69.573 69.571 69.573 38.42 0 69.568-31.151 69.568-69.573 0-38.42-31.148-69.567-69.568-69.567"/><path id="path12" d="m73.796 51.693c0.813-0.814 0.813-2.134 0-2.947-0.815-0.814-2.133-0.814-2.947 0-0.815 0.813-0.815 2.133 0 2.947 0.814 0.813 2.132 0.813 2.947 0"/><path id="path14-6" d="m66.445 53.149c-0.814 0.813-0.814 2.133 0 2.947 0.813 0.814 2.133 0.814 2.947 0 0.813-0.814 0.813-2.134 0-2.947-0.814-0.813-2.134-0.813-2.947 0"/><path id="path16-7" d="m79.231 54.233c-1.274-1.274-3.339-1.272-4.611 0l-2.713 2.712c-1.274 1.275-1.274 3.339 0 4.612l2.978 2.978c1.274 1.275 3.338 1.274 4.611 0l2.712-2.712c1.274-1.274 1.274-3.339 0-4.612z"/><path id="path18-5" d="m95.759 41.445c-2.151-2.578 1.869-7.257 4.391-4.463 4.645 5.148-2.237 7.041-4.391 4.463m9.245 2.687c3.442-6.553-1.427-10.381-4.773-13.523-5.36-5.039-10.706-7.217-16.811-0.241-6.102 6.977-2.226 15.068 3.356 19.061 5.584 3.994 14.782 1.255 18.228-5.297"/></g></svg>